<svg viewBox="0 -26 512 512" xmlns="http://www.w3.org/2000/svg"><path d="m462 10h-412c-22.089844 0-40 17.910156-40 40v60h20v320c0 11.050781 8.949219 20 20 20h412c11.050781 0 20-8.949219 20-20v-320h20v-60c0-22.089844-17.910156-40-40-40zm0 0" fill="#ffe781"/><path d="m206 10v260l50-40 50 40c0-6.738281 0-253.246094 0-260zm0 0" fill="#e87288"/><path d="m316 330h106v60h-106zm0 0" fill="#fafaff"/><path d="m90.25 320c-5.519531 0-10 4.480469-10 10s4.480469 10 10 10 10-4.480469 10-10-4.480469-10-10-10zm0 0"/><path d="m90.25 380c-5.519531 0-10 4.480469-10 10s4.480469 10 10 10 10-4.480469 10-10-4.480469-10-10-10zm0 0"/><path d="m462 0h-412c-27.613281 0-50 22.386719-50 50v60c0 5.523438 4.476562 10 10 10h10v310c0 16.570312 13.429688 30 30 30h412c16.570312 0 30-13.429688 30-30v-310h10c5.523438 0 10-4.476562 10-10v-60c0-27.613281-22.386719-50-50-50zm-166 249.195312-33.753906-27.003906c-3.652344-2.921875-8.839844-2.921875-12.492188 0l-33.753906 27.003906v-229.195312h80zm-246-229.195312h146v80h-176v-50c0-16.570312 13.429688-30 30-30zm422 410c0 5.523438-4.476562 10-10 10h-412c-5.523438 0-10-4.476562-10-10v-310h156v149.8125c0 2.765625 1.03125 5.480469 3.039062 7.382812 3.792969 3.59375 9.394532 3.664063 13.207032.613282l43.753906-35.003906 43.753906 35.003906c3.828125 3.0625 9.457032 2.972656 13.234375-.644532 1.992188-1.902343 3.011719-4.609374 3.011719-7.363281v-149.800781h156zm20-330h-176v-80h146c16.570312 0 30 13.429688 30 30zm0 0"/><path d="m306 330v60c0 5.523438 4.476562 10 10 10h106c5.523438 0 10-4.476562 10-10v-60c0-5.523438-4.476562-10-10-10h-106c-5.523438 0-10 4.476562-10 10zm106 50h-86v-40h86zm0 0"/><path d="m196.25 320h-66c-5.523438 0-10 4.476562-10 10s4.476562 10 10 10h66c5.523438 0 10-4.476562 10-10s-4.476562-10-10-10zm0 0"/><path d="m196.25 380h-66c-5.523438 0-10 4.476562-10 10s4.476562 10 10 10h66c5.523438 0 10-4.476562 10-10s-4.476562-10-10-10zm0 0"/></svg>