<svg viewBox="-36 0 512 512" xmlns="http://www.w3.org/2000/svg"><path d="m279.101562 343.320312-.273437-1.210937-.039063.011719h-119.378906l-.039062-.011719-.269532 1.210937-70.101562 9.089844v149.589844h260v-149.601562zm0 0" fill="#e87288"/><path d="m351.5 130h-11.5v-20h-240v20h-8.5c-22.089844 0-40 17.910156-40 40s17.910156 40 40 40h10.160156c4.210938 25.128906 16.238282 47.601562 33.488282 64.851562 9.972656 9.96875 21.679687 18.1875 34.640624 24.167969l-9.519531 43.089844.039063.011719c3.0625 30.257812 28.621094 53.878906 59.691406 53.878906s56.628906-23.621094 59.691406-53.878906l.039063-.011719-9.519531-43.089844c35.390624-16.320312 61.480468-49.378906 68.128906-89.019531h13.160156c22.089844 0 40-17.910156 40-40s-17.910156-40-40-40zm0 0" fill="#fed2a4"/><path d="m430 440.03125v61.96875h-80.101562v-149.601562l1.191406.152343c49.480468 6.425781 78.910156 44.355469 78.910156 87.480469zm0 0" fill="#ffe781"/><path d="m240 10h-20c-.03125 0-20 0-20 0-55.230469 0-100 44.769531-100 100v2.320312c2.679688 32.058594 60.570312 57.679688 119.898438 57.679688 60.75 0 120-26.859375 120-60h.101562c0-55.230469-44.769531-100-100-100zm0 0" fill="#e87288"/><path d="m89.898438 352.421875v149.578125h-79.898438v-61.949219c0-43.636719 29.878906-81.140625 78.929688-87.511719l.96875-.128906zm0 0" fill="#ffe781"/><path d="m269.898438 220c5.523437 0 10-4.480469 10-10s-4.476563-10-10-10c-5.519532 0-10 4.480469-10 10s4.480468 10 10 10zm0 0"/><path d="m179.898438 210c0-5.519531-4.476563-10-10-10-5.519532 0-10 4.480469-10 10s4.480468 10 10 10c5.523437 0 10-4.480469 10-10zm0 0"/><path d="m421.492188 382.046875c-15.144532-21.308594-40.335938-35.675781-69.152344-39.417969l-64.09375-8.320312-6.589844-29.832032c32.75-17.636718 56.335938-48.375 64.855469-84.476562h4.988281c27.570312 0 50-22.429688 50-50s-22.429688-50-50-50h-1.5v-10c0-60.652344-49.347656-110-110-110h-40c-60.015625 0-108.953125 48.316406-109.976562 108.089844-.074219.492187-.125.988281-.125 1.5v.410156c0 .929688.039062 1.800781.101562 2.628906v7.394532c-26.878906.792968-48.5 22.90625-48.5 49.976562 0 27.570312 22.429688 50 50 50h1.996094c5.511718 23.417969 17.351562 44.6875 34.582031 61.921875 8.996094 8.996094 19.164063 16.53125 30.273437 22.519531l-6.597656 29.863282-63.183594 8.191406-.929687.125c-28.78125 3.738281-53.976563 18.105468-69.121094 39.414062-12.117187 17.042969-18.519531 37.105469-18.519531 58.015625v61.949219c0 5.523438 4.476562 10 10 10h420c5.523438 0 10-4.476562 10-10v-61.96875c0-20.898438-6.398438-40.949219-18.507812-57.984375zm-321.59375-20.847656 52.546874-6.816407c8.085938 30.09375 35.367188 51.617188 67.554688 51.617188 32.183594 0 59.46875-21.523438 67.554688-51.613281l52.34375 6.796875v130.816406h-240zm120.101562-41.199219c14.835938 0 29.246094-2.453125 42.992188-7.285156l6.578124 29.765625c-3.199218 24.902343-24.261718 43.519531-49.570312 43.519531s-46.375-18.621094-49.570312-43.527344l6.574218-29.757812c13.75 4.832031 28.160156 7.285156 42.996094 7.285156zm-50-235c0-31.328125 17.167969-57.578125 39.898438-63.667969v78.667969h-38.542969c-.894531-4.886719-1.355469-9.90625-1.355469-15zm98.644531 15h-38.746093v-78.714844c22.84375 5.988282 40.101562 32.277344 40.101562 63.714844 0 5.09375-.460938 10.113281-1.355469 15zm7.914063 20c.011718 0 .027344.003906.039062.003906.019532 0 .039063-.003906.058594-.003906h50.46875c-4.535156 8.304688-14.488281 16.492188-28.804688 23.429688-21.734374 10.53125-50.316406 16.570312-78.421874 16.570312-48.128907 0-95.46875-18.441406-107.222657-40zm74.941406 20c16.542969 0 30 13.457031 30 30s-13.457031 30-30 30h-1.898438c.253907-3.328125.398438-6.664062.398438-10v-50zm-22.058594-40h-40.535156c.71875-4.925781 1.09375-9.9375 1.09375-15 0-23.40625-7.835938-44.636719-20.484375-60.023438 32.144531 11.191407 56.050781 40.128907 59.925781 75.023438zm-158.9375-75.03125c-12.660156 15.394531-20.503906 36.628906-20.503906 60.03125 0 5.0625.371094 10.074219 1.09375 15h-40.535156c3.875-34.902344 27.789062-63.84375 59.945312-75.03125zm-109.003906 145.03125c0-16.039062 12.652344-29.179688 28.5-29.960938v49.960938c0 3.324219.144531 6.652344.394531 9.972656-16.03125-.585937-28.894531-13.800781-28.894531-29.972656zm50.023438 38.347656c-1.011719-6.023437-1.523438-12.195312-1.523438-18.347656v-42.960938c6.640625 5.570313 14.835938 10.6875 24.464844 15.199219 24.089844 11.289063 55.230468 17.761719 85.433594 17.761719 41.777343 0 85.507812-12.457031 110.101562-33.128906v43.128906c0 6.152344-.511719 12.324219-1.523438 18.347656-6.007812 35.828125-29.355468 66.328125-62.457031 81.59375-14.457031 6.675782-29.941406 10.058594-46.019531 10.058594s-31.5625-3.382812-46.019531-10.058594c-11.824219-5.457031-22.511719-12.914062-31.761719-22.164062-16.296875-16.296875-26.914062-36.847656-30.695312-59.429688zm-91.523438 231.703125c0-16.734375 5.125-32.789062 14.820312-46.425781 10.121094-14.242188 26.203126-24.554688 45.078126-29.210938v127.585938h-59.898438zm400 51.949219h-60.101562v-127.632812c18.957031 4.621093 35.125 14.964843 45.289062 29.265624 9.691406 13.632813 14.8125 29.675782 14.8125 46.398438zm0 0"/><path d="m193.171875 272.738281c8.40625 3.957031 17.398437 5.960938 26.726563 5.960938 9.136718 0 17.957031-1.925781 26.21875-5.722657 5.019531-2.308593 7.214843-8.246093 4.910156-13.261718-2.308594-5.019532-8.246094-7.21875-13.265625-4.910156-5.621094 2.585937-11.632813 3.894531-17.863281 3.894531-6.363282 0-12.488282-1.363281-18.210938-4.058594-4.996094-2.351563-10.953125-.207031-13.304688 4.789063-2.351562 5-.207031 10.957031 4.789063 13.308593zm0 0"/><path d="m309.898438 446h-40c-5.519532 0-10 4.476562-10 10s4.480468 10 10 10h40c5.523437 0 10-4.476562 10-10s-4.476563-10-10-10zm0 0"/><path d="m230 446c-5.519531 0-10 4.480469-10 10s4.480469 10 10 10 10-4.480469 10-10-4.480469-10-10-10zm0 0"/></svg>