<svg height="480pt" viewBox="0 -40 480.00193 480" width="480pt" xmlns="http://www.w3.org/2000/svg"><path d="m168 72h-48l16-64h32zm0 0" fill="#e97131"/><path d="m280 112c-13.253906 0-24-10.746094-24-24h16c0 4.417969 3.582031 8 8 8 4.421875 0 8-3.582031 8-8s-3.578125-8-8-8v-16c13.257812 0 24 10.746094 24 24s-10.742188 24-24 24zm0 0" fill="#cfdfe8"/><path d="m8 312h464v80h-464zm0 0" fill="#87cee9"/><path d="m352 312h-312l-32-96h464c-48.8125 19.082031-90.667969 52.5625-120 96zm0 0" fill="#e97131"/><path d="m296 248h-277.335938l-10.664062-32h320c0 17.675781-14.324219 32-32 32zm0 0" fill="#ebb562"/><path d="m80 272h16v16h-16zm0 0" fill="#ffd782"/><path d="m112 272h16v16h-16zm0 0" fill="#ffd782"/><path d="m144 272h16v16h-16zm0 0" fill="#ffd782"/><path d="m208 272h16v16h-16zm0 0" fill="#ffd782"/><path d="m240 272h16v16h-16zm0 0" fill="#ffd782"/><path d="m400 360c-6.832031.148438-13.582031-1.507812-19.574219-4.800781-7.746093-4.210938-17.101562-4.210938-24.847656 0-5.992187 3.292969-12.742187 4.949219-19.578125 4.800781v-16c4.363281.128906 8.667969-.980469 12.425781-3.199219 12.253907-6.453125 26.898438-6.453125 39.152344 0 7.746094 4.214844 17.101563 4.214844 24.847656 0 5.992188-3.289062 12.742188-4.945312 19.574219-4.800781v16c-4.359375-.125-8.664062.984375-12.421875 3.199219-5.992187 3.289062-12.742187 4.945312-19.578125 4.800781zm0 0" fill="#32b1cc"/><path d="m272 368c-6.832031.148438-13.582031-1.507812-19.574219-4.800781-7.746093-4.210938-17.101562-4.210938-24.847656 0-12.253906 6.457031-26.898437 6.457031-39.152344 0-3.757812-2.214844-8.0625-3.324219-12.425781-3.199219v-16c6.835938-.144531 13.585938 1.511719 19.578125 4.800781 7.746094 4.214844 17.101563 4.214844 24.847656 0 12.253907-6.453125 26.898438-6.453125 39.152344 0 3.757813 2.21875 8.0625 3.328125 12.421875 3.199219zm0 0" fill="#32b1cc"/><path d="m72 360c-6.832031.148438-13.582031-1.507812-19.574219-4.800781-3.757812-2.214844-8.0625-3.324219-12.425781-3.199219-4.359375-.125-8.664062.984375-12.421875 3.199219-5.992187 3.292969-12.742187 4.949219-19.578125 4.800781v-16c4.363281.128906 8.667969-.980469 12.425781-3.199219 5.992188-3.292969 12.742188-4.949219 19.574219-4.800781 6.835938-.148438 13.585938 1.507812 19.578125 4.800781 3.757813 2.21875 8.0625 3.328125 12.421875 3.199219 4.363281.125 8.667969-.984375 12.425781-3.199219 5.992188-3.289062 12.742188-4.945312 19.574219-4.800781v16c-4.359375-.125-8.664062.984375-12.421875 3.199219-5.992187 3.289062-12.742187 4.945312-19.578125 4.800781zm0 0" fill="#32b1cc"/><path d="m40 72h128v144h-128zm0 0" fill="#98a1a1"/><path d="m16 64h176v16h-176zm0 0" fill="#c45c24"/><g fill="#394d5c"><path d="m64 96h16v16h-16zm0 0"/><path d="m96 96h16v16h-16zm0 0"/><path d="m128 96h16v16h-16zm0 0"/><path d="m64 128h16v16h-16zm0 0"/><path d="m96 128h16v16h-16zm0 0"/><path d="m128 128h16v16h-16zm0 0"/><path d="m64 160h16v16h-16zm0 0"/><path d="m96 160h16v16h-16zm0 0"/><path d="m128 160h16v16h-16zm0 0"/><path d="m163.058594 113.707031 111.996094-87.996093 9.886718 12.578124-112 88zm0 0"/></g><path d="m272 16h16v64h-16zm0 0" fill="#3b73a5"/><path d="m200 136h160v80h-160zm0 0" fill="#cfdfe8"/><path d="m360 24h80v192h-80zm0 0" fill="#3b73a5"/><path d="m224 136h16v56h-16zm0 0" fill="#f4f4e6"/><path d="m256 136h16v56h-16zm0 0" fill="#f4f4e6"/><path d="m288 136h16v56h-16zm0 0" fill="#f4f4e6"/><path d="m320 136h16v56h-16zm0 0" fill="#f4f4e6"/><path d="m384 80h56v16h-56zm0 0" fill="#cfdfe8"/><path d="m384 48h56v16h-56zm0 0" fill="#cfdfe8"/><path d="m384 112h56v16h-56zm0 0" fill="#cfdfe8"/><path d="m384 144h56v16h-56zm0 0" fill="#cfdfe8"/><path d="m384 176h56v16h-56zm0 0" fill="#cfdfe8"/><path d="m474.539062 223.585938c3.714844-1.25 5.976563-5.003907 5.347657-8.871094-.628907-3.867188-3.964844-6.707032-7.886719-6.714844h-24v-192h-96v112h-160v80h-16v-84.109375l96-75.433594v31.542969h8c4.421875 0 8 3.582031 8 8s-3.578125 8-8 8c-4.417969 0-8-3.582031-8-8h-16c-.046875 12.21875 9.085938 22.523438 21.222656 23.9375 12.136719 1.414062 23.398438-6.511719 26.160156-18.414062 2.757813-11.902344-3.863281-23.976563-15.382812-28.050782v-49.472656h-16v12.113281l-96 75.433594v-23.546875h16v-16h-16v-64h-46.246094l-16 64h-97.753906v16h16v128h-24c-2.570312 0-4.984375 1.234375-6.488281 3.320312-1.5039065 2.085938-1.914063 4.769532-1.101563 7.207032l28.488282 85.472656h-28.898438v96h480v-96h-112.4375c27.796875-35.917969 64.746094-63.695312 106.976562-80.414062zm-106.539062-191.585938h64v16h-48v16h48v16h-48v16h48v16h-48v16h48v16h-48v16h48v16h-48v16h48v16h-64zm-160 112h16v48h16v-48h16v48h16v-48h16v48h16v-48h16v48h16v-48h16v64h-144zm-65.75-128h17.75v48h-29.75zm-94.25 64h112v128h-112zm270.632812 144c-3.402343 9.582031-12.464843 15.988281-22.632812 16h-271.566406l-5.328125-16zm-288.863281 32h266.230469c19.003906-.023438 35.375-13.386719 39.203125-32h100.847656c-35.0625 19.703125-65.238281 47.046875-88.289062 80h-301.992188zm434.230469 128h-448v-24.757812c4.042969-.777344 7.945312-2.152344 11.578125-4.082032 3.761719-2.203125 8.066406-3.296875 12.421875-3.160156 4.363281-.125 8.667969.984375 12.425781 3.199219 5.992188 3.292969 12.742188 4.949219 19.574219 4.800781 6.835938.144531 13.585938-1.511719 19.578125-4.800781 3.757813-2.214844 8.0625-3.324219 12.421875-3.199219v-16c-6.832031-.144531-13.582031 1.511719-19.574219 4.800781-3.757812 2.214844-8.0625 3.324219-12.425781 3.199219-4.359375.128906-8.664062-.980469-12.421875-3.199219-5.992187-3.292969-12.742187-4.949219-19.578125-4.800781-6.832031-.148438-13.582031 1.507812-19.574219 4.800781-1.429687.757813-2.90625 1.417969-4.425781 1.984375v-22.785156h448zm0 0"/><path d="m80 272h16v16h-16zm0 0"/><path d="m112 272h16v16h-16zm0 0"/><path d="m144 272h16v16h-16zm0 0"/><path d="m208 272h16v16h-16zm0 0"/><path d="m240 272h16v16h-16zm0 0"/><path d="m336 344v16c6.835938.148438 13.585938-1.507812 19.578125-4.800781 7.746094-4.210938 17.101563-4.210938 24.847656 0 12.253907 6.457031 26.898438 6.457031 39.152344 0 3.757813-2.214844 8.0625-3.324219 12.421875-3.199219v-16c-6.832031-.144531-13.582031 1.511719-19.574219 4.800781-7.746093 4.214844-17.101562 4.214844-24.847656 0-12.253906-6.453125-26.898437-6.453125-39.152344 0-3.757812 2.21875-8.0625 3.328125-12.425781 3.199219zm0 0"/><path d="m240 344c-6.832031-.148438-13.582031 1.507812-19.574219 4.800781-7.746093 4.214844-17.101562 4.214844-24.847656 0-5.992187-3.289062-12.742187-4.945312-19.578125-4.800781v16c4.363281-.125 8.667969.984375 12.425781 3.199219 12.253907 6.457031 26.898438 6.457031 39.152344 0 7.746094-4.210938 17.101563-4.210938 24.847656 0 5.992188 3.292969 12.742188 4.949219 19.574219 4.800781v-16c-4.359375.128906-8.664062-.980469-12.421875-3.199219-5.992187-3.292969-12.742187-4.949219-19.578125-4.800781zm0 0"/><path d="m64 96h16v16h-16zm0 0"/><path d="m96 96h16v16h-16zm0 0"/><path d="m128 96h16v16h-16zm0 0"/><path d="m64 128h16v16h-16zm0 0"/><path d="m96 128h16v16h-16zm0 0"/><path d="m128 128h16v16h-16zm0 0"/><path d="m64 160h16v16h-16zm0 0"/><path d="m96 160h16v16h-16zm0 0"/><path d="m128 160h16v16h-16zm0 0"/></svg>